# Blender v2.79 (sub 0) OBJ File: 'productions.blend'
# www.blender.org
mtllib productions.mtl
o Second_Part_Second_Part_-_Geometry
v 0.074738 -0.000000 -1.818329
v 0.516696 -0.000000 1.716454
v 0.697228 -0.000000 -1.138251
v 1.106791 -0.000000 -0.851444
v 1.680405 -0.000000 -1.670570
v 0.533629 -0.000000 -2.473630
v 1.748308 -0.000000 -1.790206
v 1.791031 -0.000000 -1.920704
v 1.807474 -0.000000 -2.057029
v 1.797006 -0.000000 -2.193943
v 1.760028 -0.000000 -2.326184
v 1.697962 -0.000000 -2.448669
v 1.613192 -0.000000 -2.556693
v 1.508977 -0.000000 -2.646103
v 1.389322 -0.000000 -2.713464
v 1.258824 -0.000000 -2.756186
v 1.122499 -0.000000 -2.772629
v 0.985585 -0.000000 -2.762161
v 0.853345 -0.000000 -2.725183
v 0.730859 -0.000000 -2.663117
v 0.622835 -0.000000 -2.578347
v 0.532843 -0.000000 1.750358
v 0.700618 -0.000000 1.676559
v 1.613192 -0.000000 -2.556693
v 1.613192 -0.000000 -2.556693
v 0.673299 -0.000000 1.513607
v 0.850471 -0.000000 3.409250
v 0.988348 -0.000000 3.266763
v 1.095778 -0.000000 3.100114
v 1.168634 -0.000000 2.915709
v 1.204113 -0.000000 2.720634
v 1.200855 -0.000000 2.522387
v 1.158980 -0.000000 2.328583
v 1.080103 -0.000000 2.146674
v 0.967252 -0.000000 1.983647
v 0.824763 -0.000000 1.845768
v 0.426208 -0.000000 1.918902
v 0.344910 -0.000000 2.029612
v 0.256523 -0.000000 2.181315
v 0.231945 -0.000000 2.316453
v 0.234204 -0.000000 2.453787
v 0.263210 -0.000000 2.588042
v 0.317852 -0.000000 2.714059
v 0.396030 -0.000000 2.826995
v 0.494737 -0.000000 2.922508
v 0.730646 -0.000000 3.469066
v 0.728612 -0.000000 3.345332
v 0.702477 -0.000000 3.224372
v 0.653247 -0.000000 3.110835
v 0.582813 -0.000000 3.009083
v 0.078189 -0.000000 1.663407
v 1.107010 0.200000 -2.072100
v 0.385983 0.200000 -1.478290
v 0.765302 0.200000 -1.589251
v 0.385983 0.200000 1.321314
v 0.616730 0.100000 1.713458
v 0.769486 0.200000 2.578879
v 0.810880 0.100000 3.270101
v 0.824770 0.200000 2.892247
v 0.851946 0.150000 3.048931
v 0.668313 0.200000 2.146169
v 1.046298 0.150000 -2.417130
v 1.015941 0.075000 -2.589646
v 0.834567 0.075000 -2.497739
v 1.307994 0.150000 -2.359101
v 1.231481 0.050000 -2.628927
v 0.820319 0.150000 -2.272865
v 1.393708 0.150000 -1.871335
v 1.452008 0.150000 -2.133021
v 1.587721 0.050000 -2.379461
v 1.624507 0.075000 -2.163482
v 1.600158 0.075000 -1.961614
v 0.936046 0.100000 -1.220347
v 0.632111 0.100000 2.750694
v 0.516348 0.100000 2.583461
v 0.985170 0.100000 2.550633
v 0.506612 0.100000 2.087890
v 0.718899 0.200000 2.362524
v 0.475422 0.100000 2.339488
vt 0.000000 0.000000
vt 0.000000 0.000000
vt 0.000000 0.000000
vt 0.000000 0.000000
vt 0.000000 0.000000
vt 0.000000 0.000000
vt 0.000000 0.000000
vt 0.000000 0.000000
vt 0.000000 0.000000
vt 0.000000 0.000000
vt 0.000000 0.000000
vt 0.000000 0.000000
vt 0.000000 0.000000
vt 0.000000 0.000000
vt 0.000000 0.000000
vt 0.000000 0.000000
vt 0.000000 0.000000
vt 0.000000 0.000000
vt 0.000000 0.000000
vt 0.000000 0.000000
vt 0.000000 0.000000
vt 0.000000 0.000000
vt 0.000000 0.000000
vt 0.000000 0.000000
vt 0.000000 0.000000
vt 0.000000 0.000000
vt 0.000000 0.000000
vt 0.000000 0.000000
vt 0.000000 0.000000
vt 0.000000 0.000000
vt 0.000000 0.000000
vt 0.000000 0.000000
vt 0.000000 0.000000
vt 0.000000 0.000000
vt 0.000000 0.000000
vt 0.000000 0.000000
vt 0.000000 0.000000
vt 0.000000 0.000000
vt 0.000000 0.000000
vt 0.000000 0.000000
vt 0.000000 0.000000
vt 0.000000 0.000000
vt 0.000000 0.000000
vt 0.000000 0.000000
vt 0.000000 0.000000
vt 0.000000 0.000000
vt 0.000000 0.000000
vt 0.000000 0.000000
vt 0.000000 0.000000
vt 0.000000 0.000000
vt 0.000000 0.000000
vt 0.000000 0.000000
vt 0.000000 0.000000
vt 0.000000 0.000000
vt 0.000000 0.000000
vt 0.000000 0.000000
vt 0.000000 0.000000
vt 0.000000 0.000000
vt 0.000000 0.000000
vt 0.000000 0.000000
vt 0.000000 0.000000
vt 0.000000 0.000000
vt 0.000000 0.000000
vt 0.000000 0.000000
vt 0.000000 0.000000
vt 0.000000 0.000000
vt 0.000000 0.000000
vt 0.000000 0.000000
vt 0.000000 0.000000
vt 0.000000 0.000000
vt 0.000000 0.000000
vt 0.000000 0.000000
vt 0.000000 0.000000
vt 0.000000 0.000000
vt 0.000000 0.000000
vt 0.000000 0.000000
vt 0.000000 0.000000
vn 0.2569 0.8180 0.5147
vn 0.4485 0.7814 0.4340
vn 0.4184 0.8608 -0.2897
vn 0.2029 -0.8450 -0.4948
vn 0.6657 -0.6755 -0.3171
vn 0.5440 0.8010 -0.2500
vn 0.0000 1.0000 -0.0000
vn -0.3425 -0.9328 -0.1121
vn -0.3574 -0.9330 -0.0431
vn -0.3941 -0.9186 0.0301
vn -0.3806 -0.9186 0.1064
vn -0.3210 -0.9330 0.1627
vn -0.2834 -0.9328 0.2224
vn -0.2046 -0.9494 0.2384
vn -0.3078 -0.9145 0.2624
vn -0.1413 -0.9145 0.3790
vn -0.1541 -0.9494 0.2738
vn -0.1121 -0.9328 0.3424
vn -0.0431 -0.9330 0.3573
vn 0.0301 -0.9186 0.3941
vn 0.1064 -0.9186 0.3806
vn 0.1627 -0.9330 0.3211
vn 0.2225 -0.9328 0.2835
vn 0.2524 -0.9435 0.2150
vn 0.2532 -0.9128 0.3205
vn 0.0822 -0.9883 0.1288
vn -0.3167 -0.9268 0.2017
vn -0.0813 -0.9268 0.3665
vn -0.0810 -0.9900 0.1157
vn -0.3721 -0.9245 -0.0829
vn -0.4055 -0.9128 -0.0489
vn -0.3679 -0.9145 0.1685
vn -0.2883 -0.9435 -0.1636
vn -0.0326 -0.9145 0.4033
vn 0.1846 -0.9128 0.3643
vn 0.2051 -0.9245 0.3213
vn -0.3877 -0.9128 -0.1283
vn -0.1491 -0.9883 -0.0332
vn -0.1222 -0.9003 -0.4177
vn -0.1424 -0.9793 -0.1436
vn -0.2540 -0.9441 -0.2103
vn 0.2522 -0.8981 -0.3602
vn 0.0642 -0.9949 0.0779
vn 0.3261 -0.9163 0.2325
vn 0.5427 -0.8399 -0.0003
vn -0.5541 -0.8324 -0.0024
vn -0.6624 -0.7280 0.1768
vn 0.6009 0.6668 -0.4409
vn 0.3647 0.8514 -0.3769
vn -0.9923 0.0000 -0.1240
vn 0.7857 -0.5738 0.2311
vn -0.4831 0.8640 -0.1421
vn -0.5084 0.8588 -0.0630
vn -0.3857 0.9182 0.0902
vn 0.4347 0.8948 -0.1016
vn -0.3966 -0.9018 0.1719
vn -0.4061 -0.9092 0.0916
vn -0.4094 -0.9080 0.0885
vn -0.4199 -0.9076 0.0069
vn -0.4475 -0.8928 0.0512
vn -0.4961 -0.8636 -0.0902
vn -0.4841 -0.8544 -0.1887
vn -0.4848 -0.8534 -0.1915
vn -0.4554 -0.8405 -0.2936
vn 0.4756 0.8349 0.2771
vn -0.6860 0.7267 0.0369
vn 0.5385 -0.8096 -0.2335
vn 0.4955 -0.7980 -0.3430
vn 0.4957 -0.7988 -0.3409
vn 0.5641 -0.8006 -0.2022
vn 0.2914 -0.9095 -0.2964
vn 0.2888 -0.9097 -0.2985
vn -0.3190 0.9217 0.2208
vn 0.3190 -0.9217 -0.2208
vn 0.3525 -0.9034 -0.2440
vn 0.5101 -0.8554 -0.0900
vn -0.4117 -0.9084 0.0726
vn -0.4084 -0.9078 0.0955
vn 0.3647 -0.9272 -0.0853
vn 0.3843 -0.9209 -0.0645
vn 0.3363 -0.9417 -0.0055
vn 0.3604 -0.9196 -0.1563
vn 0.3650 -0.9276 -0.0789
vn 0.3757 -0.9256 0.0466
vn 0.3932 -0.9166 0.0715
vn 0.4399 -0.8607 0.2563
vn 0.4181 -0.8550 0.3070
vn 0.4513 -0.8454 0.2856
vn 0.7041 -0.6937 -0.1521
vn 0.7675 -0.6409 -0.0126
usemtl Material
s off
f 46/1/1 27/2/1 58/3/1
f 28/4/2 58/3/2 27/2/2
f 35/5/3 61/6/3 34/7/3
f 55/8/4 56/9/4 2/10/4 51/11/4
f 2/10/5 56/9/5 22/12/5
f 56/9/6 61/6/6 36/13/6
f 3/14/7 4/15/7 5/16/7 7/17/7 8/18/7 9/19/7 10/20/7 11/21/7 12/22/7 13/23/7 14/24/7 15/25/7 16/26/7 17/27/7 18/28/7 19/29/7 20/30/7 21/31/7 6/32/7 1/33/7 51/11/7 2/10/7 22/12/7 37/34/7 38/35/7 39/36/7 40/37/7 41/38/7 42/39/7 43/40/7 44/41/7 45/42/7 50/43/7 49/44/7 48/45/7 47/46/7 46/1/7 27/2/7 28/4/7 29/47/7 30/48/7 31/49/7 32/50/7 33/51/7 34/7/7 35/5/7 36/13/7 23/52/7 26/53/7
f 7/17/8 72/54/8 8/18/8
f 72/54/9 9/19/9 8/18/9
f 72/54/9 71/55/9 9/19/9
f 71/55/10 10/20/10 9/19/10
f 71/55/11 11/21/11 10/20/11
f 71/55/12 70/56/12 11/21/12
f 70/56/12 12/22/12 11/21/12
f 70/56/13 13/23/13 12/22/13
f 70/56/14 14/24/14 13/23/14
f 70/56/15 65/57/15 14/24/15
f 65/57/16 66/58/16 14/24/16
f 66/58/17 15/25/17 14/24/17
f 66/58/18 16/26/18 15/25/18
f 66/58/19 17/27/19 16/26/19
f 66/58/19 63/59/19 17/27/19
f 63/59/20 18/28/20 17/27/20
f 63/59/21 19/29/21 18/28/21
f 63/59/22 64/60/22 19/29/22
f 64/60/22 20/30/22 19/29/22
f 64/60/23 21/31/23 20/30/23
f 21/31/24 64/60/24 6/32/24
f 64/60/25 67/61/25 6/32/25
f 67/61/26 62/62/26 52/63/26
f 69/64/27 65/57/27 70/56/27
f 65/57/28 62/62/28 66/58/28
f 65/57/29 69/64/29 52/63/29 62/62/29
f 69/64/30 72/54/30 68/65/30
f 72/54/31 69/64/31 71/55/31
f 71/55/32 69/64/32 70/56/32
f 5/16/33 72/54/33 7/17/33
f 66/58/34 62/62/34 63/59/34
f 63/59/35 62/62/35 64/60/35
f 64/60/36 62/62/36 67/61/36
f 68/65/37 72/54/37 5/16/37
f 69/64/38 68/65/38 52/63/38
f 53/66/39 54/67/39 3/14/39
f 52/63/40 68/65/40 73/68/40 54/67/40
f 5/16/41 4/15/41 73/68/41 68/65/41
f 4/15/42 3/14/42 73/68/42
f 54/67/42 73/68/42 3/14/42
f 53/66/43 67/61/43 52/63/43 54/67/43
f 6/32/44 67/61/44 53/66/44 1/33/44
f 51/11/45 1/33/45 53/66/45 55/8/45
f 26/53/46 55/8/46 53/66/46 3/14/46
f 23/52/47 56/9/47 55/8/47 26/53/47
f 36/13/48 23/52/48 56/9/48
f 61/6/49 35/5/49 36/13/49
f 42/39/50 57/69/50 75/70/50
f 56/9/51 77/71/51 22/12/51
f 61/6/52 56/9/52 77/71/52
f 77/71/53 79/72/53 61/6/53
f 78/73/54 61/6/54 79/72/54
f 78/73/55 34/7/55 61/6/55
f 34/7/56 33/51/56 78/73/56
f 76/74/57 78/73/57 33/51/57
f 33/51/58 32/50/58 76/74/58
f 32/50/59 31/49/59 76/74/59
f 76/74/60 31/49/60 59/75/60
f 31/49/61 30/48/61 59/75/61
f 59/75/62 30/48/62 60/76/62
f 30/48/63 29/47/63 60/76/63
f 29/47/64 28/4/64 60/76/64
f 58/3/65 28/4/65 60/76/65
f 58/3/66 60/76/66 48/45/66
f 49/44/67 60/76/67 48/45/67
f 50/43/68 60/76/68 49/44/68
f 59/75/69 60/76/69 50/43/69
f 59/75/70 50/43/70 74/77/70
f 50/43/71 45/42/71 74/77/71
f 45/42/72 44/41/72 74/77/72
f 74/77/73 75/70/73 43/40/73
f 44/41/74 43/40/74 74/77/74
f 74/77/75 75/70/75 57/69/75
f 59/75/76 74/77/76 57/69/76
f 59/75/77 57/69/77 76/74/77
f 76/74/78 57/69/78 78/73/78
f 78/73/79 57/69/79 75/70/79
f 79/72/80 78/73/80 75/70/80
f 41/38/81 40/37/81 75/70/81
f 75/70/80 40/37/80 79/72/80
f 42/39/82 75/70/82 43/40/82
f 41/38/83 75/70/83 42/39/83
f 77/71/84 79/72/84 40/37/84
f 40/37/85 39/36/85 77/71/85
f 39/36/86 38/35/86 77/71/86
f 38/35/87 37/34/87 77/71/87
f 37/34/88 22/12/88 77/71/88
f 48/45/89 58/3/89 47/46/89
f 47/46/90 58/3/90 46/1/90
l 24 25
l 13 24
l 14 52
o Part_Part_-_Geometry
v -0.074738 -0.000000 1.818329
v -0.516696 -0.000000 -1.716454
v -0.697228 -0.000000 1.138251
v -1.106791 -0.000000 0.851444
v -1.680405 -0.000000 1.670570
v -0.533629 -0.000000 2.473630
v -1.748308 -0.000000 1.790206
v -1.791031 -0.000000 1.920704
v -1.807474 -0.000000 2.057029
v -1.797006 -0.000000 2.193943
v -1.760028 -0.000000 2.326184
v -1.697962 -0.000000 2.448669
v -1.613192 -0.000000 2.556693
v -1.508977 -0.000000 2.646103
v -1.389322 -0.000000 2.713464
v -1.258824 -0.000000 2.756186
v -1.122499 -0.000000 2.772629
v -0.985585 -0.000000 2.762161
v -0.853345 -0.000000 2.725183
v -0.730859 -0.000000 2.663117
v -0.622835 -0.000000 2.578347
v -0.532843 -0.000000 -1.750358
v -0.700618 -0.000000 -1.676559
v -1.613192 0.000000 2.556693
v -1.613192 0.000000 2.556693
v -0.673299 -0.000000 -1.513607
v -0.850471 0.000000 -3.409250
v -0.988348 0.000000 -3.266763
v -1.095778 0.000000 -3.100114
v -1.168634 0.000000 -2.915709
v -1.204113 -0.000000 -2.720634
v -1.200855 -0.000000 -2.522387
v -1.158980 -0.000000 -2.328583
v -1.080103 -0.000000 -2.146674
v -0.967252 -0.000000 -1.983647
v -0.824763 -0.000000 -1.845768
v -0.426208 0.000000 -1.918902
v -0.344910 0.000000 -2.029612
v -0.256523 0.000000 -2.181315
v -0.231945 0.000000 -2.316453
v -0.234204 0.000000 -2.453787
v -0.263210 0.000000 -2.588042
v -0.317852 0.000000 -2.714059
v -0.396030 0.000000 -2.826995
v -0.494737 0.000000 -2.922508
v -0.730646 0.000000 -3.469066
v -0.728612 0.000000 -3.345332
v -0.702477 0.000000 -3.224372
v -0.653247 0.000000 -3.110835
v -0.582813 0.000000 -3.009083
v -0.078189 -0.000000 -1.663407
v -1.107010 0.200000 2.072100
v -0.385983 0.200000 1.478290
v -0.765302 0.200000 1.589251
v -0.385983 0.200000 -1.321314
v -0.616730 0.100000 -1.713458
v -0.769486 0.200000 -2.578879
v -0.810880 0.100000 -3.270101
v -0.824770 0.200000 -2.892247
v -0.851946 0.150000 -3.048931
v -0.668313 0.200000 -2.146169
v -1.046298 0.150000 2.417130
v -1.015941 0.075000 2.589646
v -0.834567 0.075000 2.497739
v -1.307994 0.150000 2.359101
v -1.231481 0.050000 2.628927
v -0.820319 0.150000 2.272865
v -1.393708 0.150000 1.871335
v -1.452008 0.150000 2.133021
v -1.587721 0.050000 2.379461
v -1.624507 0.075000 2.163482
v -1.600158 0.075000 1.961614
v -0.936046 0.100000 1.220347
v -0.632111 0.100000 -2.750694
v -0.516348 0.100000 -2.583461
v -0.985170 0.100000 -2.550633
v -0.506612 0.100000 -2.087890
v -0.718899 0.200000 -2.362524
v -0.475422 0.100000 -2.339488
vt 0.000000 0.000000
vt 0.000000 0.000000
vt 0.000000 0.000000
vt 0.000000 0.000000
vt 0.000000 0.000000
vt 0.000000 0.000000
vt 0.000000 0.000000
vt 0.000000 0.000000
vt 0.000000 0.000000
vt 0.000000 0.000000
vt 0.000000 0.000000
vt 0.000000 0.000000
vt 0.000000 0.000000
vt 0.000000 0.000000
vt 0.000000 0.000000
vt 0.000000 0.000000
vt 0.000000 0.000000
vt 0.000000 0.000000
vt 0.000000 0.000000
vt 0.000000 0.000000
vt 0.000000 0.000000
vt 0.000000 0.000000
vt 0.000000 0.000000
vt 0.000000 0.000000
vt 0.000000 0.000000
vt 0.000000 0.000000
vt 0.000000 0.000000
vt 0.000000 0.000000
vt 0.000000 0.000000
vt 0.000000 0.000000
vt 0.000000 0.000000
vt 0.000000 0.000000
vt 0.000000 0.000000
vt 0.000000 0.000000
vt 0.000000 0.000000
vt 0.000000 0.000000
vt 0.000000 0.000000
vt 0.000000 0.000000
vt 0.000000 0.000000
vt 0.000000 0.000000
vt 0.000000 0.000000
vt 0.000000 0.000000
vt 0.000000 0.000000
vt 0.000000 0.000000
vt 0.000000 0.000000
vt 0.000000 0.000000
vt 0.000000 0.000000
vt 0.000000 0.000000
vt 0.000000 0.000000
vt 0.000000 0.000000
vt 0.000000 0.000000
vt 0.000000 0.000000
vt 0.000000 0.000000
vt 0.000000 0.000000
vt 0.000000 0.000000
vt 0.000000 0.000000
vt 0.000000 0.000000
vt 0.000000 0.000000
vt 0.000000 0.000000
vt 0.000000 0.000000
vt 0.000000 0.000000
vt 0.000000 0.000000
vt 0.000000 0.000000
vt 0.000000 0.000000
vt 0.000000 0.000000
vt 0.000000 0.000000
vt 0.000000 0.000000
vt 0.000000 0.000000
vt 0.000000 0.000000
vt 0.000000 0.000000
vt 0.000000 0.000000
vt 0.000000 0.000000
vt 0.000000 0.000000
vt 0.000000 0.000000
vt 0.000000 0.000000
vt 0.000000 0.000000
vt 0.000000 0.000000
vn -0.2569 0.8180 -0.5147
vn -0.4485 0.7814 -0.4340
vn -0.4184 0.8608 0.2897
vn -0.2029 -0.8450 0.4948
vn -0.6657 -0.6755 0.3171
vn -0.5440 0.8010 0.2500
vn -0.0000 1.0000 0.0000
vn 0.3425 -0.9328 0.1121
vn 0.3574 -0.9330 0.0431
vn 0.3941 -0.9186 -0.0301
vn 0.3806 -0.9186 -0.1064
vn 0.3210 -0.9330 -0.1627
vn 0.2834 -0.9328 -0.2224
vn 0.2046 -0.9494 -0.2384
vn 0.3078 -0.9145 -0.2624
vn 0.1413 -0.9145 -0.3790
vn 0.1541 -0.9494 -0.2738
vn 0.1121 -0.9328 -0.3424
vn 0.0431 -0.9330 -0.3573
vn -0.0301 -0.9186 -0.3941
vn -0.1064 -0.9186 -0.3806
vn -0.1627 -0.9330 -0.3211
vn -0.2225 -0.9328 -0.2835
vn -0.2524 -0.9435 -0.2150
vn -0.2532 -0.9128 -0.3205
vn -0.0822 -0.9883 -0.1288
vn 0.3167 -0.9268 -0.2017
vn 0.0813 -0.9268 -0.3665
vn 0.0810 -0.9900 -0.1157
vn 0.3721 -0.9245 0.0829
vn 0.4055 -0.9128 0.0489
vn 0.3679 -0.9145 -0.1685
vn 0.2883 -0.9435 0.1636
vn 0.0326 -0.9145 -0.4033
vn -0.1846 -0.9128 -0.3643
vn -0.2051 -0.9245 -0.3213
vn 0.3877 -0.9128 0.1283
vn 0.1491 -0.9883 0.0332
vn 0.1222 -0.9003 0.4177
vn 0.1424 -0.9793 0.1436
vn 0.2540 -0.9441 0.2103
vn -0.2522 -0.8981 0.3602
vn -0.0642 -0.9949 -0.0779
vn -0.3261 -0.9163 -0.2325
vn -0.5427 -0.8399 0.0003
vn 0.5541 -0.8324 0.0024
vn 0.6624 -0.7280 -0.1768
vn -0.6009 0.6668 0.4409
vn -0.3647 0.8514 0.3769
vn -0.9923 0.0000 0.1240
vn -0.7857 -0.5738 -0.2311
vn 0.4831 0.8640 0.1421
vn 0.5084 0.8588 0.0630
vn 0.3857 0.9182 -0.0902
vn -0.4347 0.8948 0.1016
vn 0.3966 -0.9018 -0.1719
vn 0.4061 -0.9092 -0.0916
vn 0.4094 -0.9080 -0.0885
vn 0.4199 -0.9076 -0.0069
vn 0.4475 -0.8928 -0.0512
vn 0.4961 -0.8636 0.0902
vn 0.4841 -0.8544 0.1887
vn 0.4848 -0.8534 0.1915
vn 0.4554 -0.8405 0.2936
vn -0.4756 0.8349 -0.2771
vn 0.6860 0.7267 -0.0369
vn -0.5385 -0.8096 0.2335
vn -0.4955 -0.7980 0.3430
vn -0.4957 -0.7988 0.3409
vn -0.5641 -0.8006 0.2022
vn -0.2914 -0.9095 0.2964
vn -0.2888 -0.9097 0.2985
vn 0.3190 0.9217 -0.2208
vn -0.3190 -0.9217 0.2208
vn -0.3525 -0.9034 0.2440
vn -0.5101 -0.8554 0.0900
vn 0.4117 -0.9084 -0.0726
vn 0.4084 -0.9078 -0.0955
vn -0.3647 -0.9272 0.0853
vn -0.3843 -0.9209 0.0645
vn -0.3363 -0.9417 0.0055
vn -0.3604 -0.9196 0.1563
vn -0.3650 -0.9276 0.0789
vn -0.3757 -0.9256 -0.0466
vn -0.3932 -0.9166 -0.0715
vn -0.4399 -0.8607 -0.2563
vn -0.4181 -0.8550 -0.3070
vn -0.4513 -0.8454 -0.2856
vn -0.7041 -0.6937 0.1521
vn -0.7675 -0.6409 0.0126
usemtl Material
s off
f 125/78/91 106/79/91 137/80/91
f 107/81/92 137/80/92 106/79/92
f 114/82/93 140/83/93 113/84/93
f 134/85/94 135/86/94 81/87/94 130/88/94
f 81/87/95 135/86/95 101/89/95
f 135/86/96 140/83/96 115/90/96
f 82/91/97 83/92/97 84/93/97 86/94/97 87/95/97 88/96/97 89/97/97 90/98/97 91/99/97 92/100/97 93/101/97 94/102/97 95/103/97 96/104/97 97/105/97 98/106/97 99/107/97 100/108/97 85/109/97 80/110/97 130/88/97 81/87/97 101/89/97 116/111/97 117/112/97 118/113/97 119/114/97 120/115/97 121/116/97 122/117/97 123/118/97 124/119/97 129/120/97 128/121/97 127/122/97 126/123/97 125/78/97 106/79/97 107/81/97 108/124/97 109/125/97 110/126/97 111/127/97 112/128/97 113/84/97 114/82/97 115/90/97 102/129/97 105/130/97
f 86/94/98 151/131/98 87/95/98
f 151/131/99 88/96/99 87/95/99
f 151/131/99 150/132/99 88/96/99
f 150/132/100 89/97/100 88/96/100
f 150/132/101 90/98/101 89/97/101
f 150/132/102 149/133/102 90/98/102
f 149/133/102 91/99/102 90/98/102
f 149/133/103 92/100/103 91/99/103
f 149/133/104 93/101/104 92/100/104
f 149/133/105 144/134/105 93/101/105
f 144/134/106 145/135/106 93/101/106
f 145/135/107 94/102/107 93/101/107
f 145/135/108 95/103/108 94/102/108
f 145/135/109 96/104/109 95/103/109
f 145/135/109 142/136/109 96/104/109
f 142/136/110 97/105/110 96/104/110
f 142/136/111 98/106/111 97/105/111
f 142/136/112 143/137/112 98/106/112
f 143/137/112 99/107/112 98/106/112
f 143/137/113 100/108/113 99/107/113
f 100/108/114 143/137/114 85/109/114
f 143/137/115 146/138/115 85/109/115
f 146/138/116 141/139/116 131/140/116
f 148/141/117 144/134/117 149/133/117
f 144/134/118 141/139/118 145/135/118
f 144/134/119 148/141/119 131/140/119 141/139/119
f 148/141/120 151/131/120 147/142/120
f 151/131/121 148/141/121 150/132/121
f 150/132/122 148/141/122 149/133/122
f 84/93/123 151/131/123 86/94/123
f 145/135/124 141/139/124 142/136/124
f 142/136/125 141/139/125 143/137/125
f 143/137/126 141/139/126 146/138/126
f 147/142/127 151/131/127 84/93/127
f 148/141/128 147/142/128 131/140/128
f 132/143/129 133/144/129 82/91/129
f 131/140/130 147/142/130 152/145/130 133/144/130
f 84/93/131 83/92/131 152/145/131 147/142/131
f 83/92/132 82/91/132 152/145/132
f 133/144/132 152/145/132 82/91/132
f 132/143/133 146/138/133 131/140/133 133/144/133
f 85/109/134 146/138/134 132/143/134 80/110/134
f 130/88/135 80/110/135 132/143/135 134/85/135
f 105/130/136 134/85/136 132/143/136 82/91/136
f 102/129/137 135/86/137 134/85/137 105/130/137
f 115/90/138 102/129/138 135/86/138
f 140/83/139 114/82/139 115/90/139
f 121/116/140 136/146/140 154/147/140
f 135/86/141 156/148/141 101/89/141
f 140/83/142 135/86/142 156/148/142
f 156/148/143 158/149/143 140/83/143
f 157/150/144 140/83/144 158/149/144
f 157/150/145 113/84/145 140/83/145
f 113/84/146 112/128/146 157/150/146
f 155/151/147 157/150/147 112/128/147
f 112/128/148 111/127/148 155/151/148
f 111/127/149 110/126/149 155/151/149
f 155/151/150 110/126/150 138/152/150
f 110/126/151 109/125/151 138/152/151
f 138/152/152 109/125/152 139/153/152
f 109/125/153 108/124/153 139/153/153
f 108/124/154 107/81/154 139/153/154
f 137/80/155 107/81/155 139/153/155
f 137/80/156 139/153/156 127/122/156
f 128/121/157 139/153/157 127/122/157
f 129/120/158 139/153/158 128/121/158
f 138/152/159 139/153/159 129/120/159
f 138/152/160 129/120/160 153/154/160
f 129/120/161 124/119/161 153/154/161
f 124/119/162 123/118/162 153/154/162
f 153/154/163 154/147/163 122/117/163
f 123/118/164 122/117/164 153/154/164
f 153/154/165 154/147/165 136/146/165
f 138/152/166 153/154/166 136/146/166
f 138/152/167 136/146/167 155/151/167
f 155/151/168 136/146/168 157/150/168
f 157/150/169 136/146/169 154/147/169
f 158/149/170 157/150/170 154/147/170
f 120/115/171 119/114/171 154/147/171
f 154/147/170 119/114/170 158/149/170
f 121/116/172 154/147/172 122/117/172
f 120/115/173 154/147/173 121/116/173
f 156/148/174 158/149/174 119/114/174
f 119/114/175 118/113/175 156/148/175
f 118/113/176 117/112/176 156/148/176
f 117/112/177 116/111/177 156/148/177
f 116/111/178 101/89/178 156/148/178
f 127/122/179 137/80/179 126/123/179
f 126/123/180 137/80/180 125/78/180
l 103 104
l 92 103
l 93 131
